<svg xmlns="http://www.w3.org/2000/svg" viewBox="0 0 40 40" width="40" height="40" role="img" aria-label="Recursive Frog"><rect width="40" height="40" rx="9" fill="#121210"/><g transform="translate(4 6.854) scale(0.20382)" fill="#F5F2EB" fill-rule="evenodd"><path d="M 77.33 0.3 C 77.33 0.46, 76.77 0.7, 76.08 0.83 C 74.2 1.18, 71.12 3.2, 69.65 5.06 C 67.32 8.01, 66.87 9.35, 66.85 13.5 C 66.83 16.89, 66.91 17.31, 67.79 19.09 C 68.4 20.31, 69.77 22.04, 71.49 23.76 C 73.27 25.54, 74.39 26.97, 74.7 27.83 C 75.08 28.92, 75.17 32.77, 75.17 48.7 L 75.17 68.23 74 70.52 C 72.47 73.52, 70.75 74.75, 67.82 74.94 C 66.13 75.05, 65.49 74.92, 64.1 74.22 C 62.22 73.26, 60.51 71.6, 59.49 69.74 C 59.12 69.06, 58.44 67.89, 57.99 67.15 C 57.54 66.41, 56.99 65.51, 56.77 65.15 C 56.55 64.79, 55.27 62.73, 53.93 60.56 C 52.59 58.39, 51.25 56.22, 50.96 55.73 C 50.66 55.23, 49.18 52.83, 47.68 50.38 C 44.45 45.09, 44.19 44.02, 45.29 40.4 C 46.28 37.13, 46.22 34.93, 45.03 32.03 C 42.72 26.33, 38.89 23.83, 32.48 23.83 C 29.32 23.83, 29 23.9, 26.88 24.98 C 20.06 28.44, 17.57 36.26, 21.18 42.83 C 22.59 45.39, 23.96 46.69, 26.67 48.03 C 28.52 48.95, 29.29 49.12, 32 49.26 C 36.35 49.48, 37.65 50.17, 39.71 53.33 C 40.61 54.72, 49.29 69.14, 51.34 72.67 C 51.5 72.94, 52.13 73.99, 52.75 75 C 54.53 77.92, 55 79.42, 55 82.18 C 55 87.07, 52.67 89.69, 48.11 89.94 L 45.71 90.07 42.44 88.1 C 40.64 87.01, 36.77 84.79, 33.84 83.15 C 27.6 79.67, 26 78.29, 26 76.37 C 26 74.34, 24.8 70.99, 23.42 69.19 C 21.85 67.15, 19.64 65.61, 16.95 64.7 C 14.37 63.83, 12.44 63.82, 9.74 64.67 C 4.82 66.21, 1.42 70.02, 0.8 74.68 C 0.68 75.59, 0.45 76.33, 0.29 76.33 C 0.13 76.33, 0 76.63, 0 77 C 0 77.37, 0.13 77.67, 0.3 77.67 C 0.46 77.67, 0.7 78.38, 0.83 79.25 C 1.36 82.84, 4.3 86.58, 7.94 88.27 C 9.56 89.03, 10.28 89.16, 13 89.16 C 15.83 89.17, 16.44 89.05, 18.73 88.08 C 20.14 87.49, 21.59 87, 21.97 87 C 23.3 87, 25.58 88.17, 33.66 92.98 C 41.28 97.5, 42.06 98.06, 45.18 101.17 C 48.99 104.95, 51.18 108.07, 53.23 112.62 C 54.84 116.19, 55.8 117.69, 58.14 120.25 C 61.37 123.8, 65.09 126.15, 70 127.76 C 71.19 128.15, 72.22 128.59, 72.28 128.73 C 72.42 129.08, 85.24 129.08, 85.39 128.73 C 85.45 128.59, 86.52 128.12, 87.76 127.71 C 91.57 126.44, 93 125.69, 95.99 123.46 C 99.75 120.65, 102.25 117.47, 104.99 112.03 C 108.36 105.31, 112.37 100.68, 118.36 96.58 C 119.64 95.71, 120.74 95, 120.81 95 C 120.88 95, 123.56 93.43, 126.76 91.52 C 129.97 89.61, 133.37 87.78, 134.33 87.47 L 136.07 86.9 138.79 88.03 C 141.21 89.05, 141.82 89.16, 144.5 89.15 C 147.21 89.13, 147.72 89.02, 149.77 88.01 C 152.35 86.74, 154.72 84.36, 155.76 82 C 156.13 81.17, 156.57 80.41, 156.75 80.29 C 156.92 80.18, 157.07 78.65, 157.08 76.9 C 157.08 74.38, 156.97 73.59, 156.54 73.16 C 156.24 72.86, 156 72.35, 156 72.03 C 156 71.71, 155.38 70.58, 154.62 69.52 C 152.85 67.04, 150.23 65.33, 146.92 64.51 C 144.47 63.9, 144.34 63.9, 142.12 64.49 C 139.05 65.31, 137.12 66.33, 135.41 68.02 C 133.47 69.97, 132.23 72.63, 131.97 75.4 C 131.71 78.29, 130.84 79.45, 127.42 81.48 C 126 82.32, 124.61 83.16, 124.33 83.34 C 124.06 83.52, 123.53 83.8, 123.17 83.97 C 122.8 84.13, 120.48 85.48, 118 86.97 C 112.96 90, 111.6 90.5, 109.18 90.18 C 105.38 89.67, 103.02 86.9, 103.01 82.92 C 103 79.97, 103.73 78.47, 109.52 69.5 C 110.7 67.67, 112.31 65.14, 113.09 63.89 C 113.86 62.64, 114.73 61.26, 115 60.83 C 115.27 60.4, 116.61 58.27, 117.96 56.1 C 119.32 53.94, 120.74 51.81, 121.13 51.38 C 122.39 49.98, 123.97 49.44, 127.35 49.24 C 129.99 49.09, 130.91 48.88, 132.75 48.02 C 135.27 46.82, 137.77 44.34, 139.02 41.78 C 140.1 39.56, 140.33 34.74, 139.47 32.43 C 138.15 28.91, 136.03 26.56, 132.68 24.9 C 130.69 23.92, 130.27 23.84, 127.15 23.84 C 123.9 23.83, 123.68 23.88, 121.28 25.1 C 118.84 26.33, 116.86 28.2, 115.71 30.33 C 114.06 33.41, 113.58 37.06, 114.5 39.67 C 115.23 41.73, 115.14 44.42, 114.3 46.07 C 113.91 46.83, 112.66 48.89, 111.52 50.64 C 110.39 52.4, 108.34 55.59, 106.98 57.75 C 105.62 59.9, 103.57 63.12, 102.43 64.91 C 101.29 66.7, 99.9 68.92, 99.35 69.83 C 98.07 71.94, 97.73 72.33, 96.46 73.23 C 94.77 74.41, 93.03 75, 91.21 74.99 C 88.12 74.98, 85.79 73.37, 84.48 70.34 C 83.86 68.93, 83.83 67.89, 83.83 48.84 L 83.83 28.83 84.63 27.33 C 85.46 25.78, 85.83 25.39, 88.18 23.58 C 89.85 22.3, 91.67 19.78, 92.48 17.61 C 93.41 15.14, 93.11 10.43, 91.84 7.83 C 90.18 4.4, 86.64 1.4, 83.57 0.82 C 82.89 0.7, 82.33 0.46, 82.33 0.3 C 82.33 0.13, 81.21 0, 79.83 0 C 78.46 0, 77.33 0.13, 77.33 0.3 M 78.17 7.8 C 75.18 8.74, 74 10.35, 74 13.5 C 74 16.44, 75.36 18.35, 78.02 19.14 C 81.98 20.31, 85.67 17.59, 85.67 13.5 C 85.67 10.61, 84.01 8.48, 81.17 7.7 C 79.61 7.28, 79.85 7.27, 78.17 7.8 M 30.11 31.3 C 27.76 32.39, 26.75 34.5, 26.94 37.92 C 27.03 39.56, 29.28 41.87, 31.1 42.2 C 34.43 42.8, 37 41.53, 38.19 38.71 C 40.21 33.93, 34.89 29.06, 30.11 31.3 M 125.22 31.15 C 120.99 32.68, 120.02 37.68, 123.32 40.89 C 125.25 42.77, 129.21 42.71, 131.08 40.76 C 132.14 39.65, 133 37.7, 132.99 36.43 C 132.96 32.74, 128.74 29.87, 125.22 31.15 M 10.8 71.95 C 5.88 74.25, 7.25 81.74, 12.69 82.26 C 14.88 82.47, 17.12 81.39, 17.97 79.72 C 19.01 77.64, 19.08 77.06, 18.49 75.17 C 18.04 73.77, 17.63 73.17, 16.62 72.47 C 14.91 71.28, 12.66 71.08, 10.8 71.95 M 142.07 72.04 C 141.28 72.43, 140.26 73.29, 139.82 73.95 C 138.23 76.28, 139.03 80.11, 141.38 81.49 C 142.96 82.41, 145.96 82.4, 147.22 81.47 C 148.85 80.27, 149.67 78.74, 149.67 76.93 C 149.67 74.49, 148.52 72.7, 146.38 71.8 C 144.82 71.15, 143.74 71.21, 142.07 72.04 M 0.05 77 C 0.05 77.46, 0.13 77.65, 0.22 77.42 C 0.31 77.19, 0.31 76.81, 0.22 76.58 C 0.13 76.35, 0.05 76.54, 0.05 77 M 72.86 81.69 C 65.17 84.21, 59.72 90.71, 58.68 98.59 C 58.37 100.96, 58.36 102.23, 58.66 104.09 C 59.99 112.38, 63.89 117.22, 71.83 120.45 C 73.94 121.3, 75.95 121.65, 78.83 121.65 C 89.13 121.67, 97.47 114.53, 99.26 104.15 C 99.75 101.31, 99.75 100.81, 99.26 98.03 C 97.88 90.23, 92.8 84.35, 85.18 81.69 C 82.43 80.74, 75.77 80.73, 72.86 81.69 M 76.33 87.87 C 70.95 88.87, 66.87 93.02, 65.45 98.93 C 64.95 101.03, 64.92 101.62, 65.29 103.42 C 66.72 110.47, 72.07 115, 78.97 115 C 84.08 115, 88.77 112.06, 91.15 107.36 C 95.5 98.78, 89.43 88.35, 79.8 87.85 C 78.35 87.78, 76.79 87.78, 76.33 87.87 M 77.66 95.31 C 73.97 96.44, 72.02 99.71, 72.97 103.22 C 74.05 107.25, 78.85 109.01, 82.37 106.68 C 84.21 105.46, 85 103.9, 85 101.47 C 85 98.58, 83.95 96.98, 81.17 95.65 C 79.75 94.97, 79.01 94.9, 77.66 95.31"/></g></svg>
